<svg id="Layer_1" data-name="Layer 1" xmlns="http://www.w3.org/2000/svg" viewBox="0 0 852.6 1062.92"><defs><style>.cls-1,.cls-2{fill:#0a59a8;}.cls-2{font-size:247.38px;font-family:NeueKabel-Light, Neue Kabel;font-weight:300;}.cls-3{letter-spacing:-0.03em;}.cls-4{letter-spacing:-0.02em;}.cls-5{letter-spacing:-0.02em;}.cls-6{letter-spacing:-0.01em;}</style></defs><title>general2021#1_smal_og</title><path class="cls-1" d="M1793.63,691.07c0-46.6-37.28-84.38-83.28-84.38a82,82,0,0,0-38,9.31l-79.56-139.61a84.54,84.54,0,0,0,38.14-70.89c0-46.61-37.28-84.39-83.28-84.39a83,83,0,0,0-70.21,39H1195.79l-188.59,331L1195.79,1022H1574l140.56-246.67C1758.6,773.13,1793.63,736.25,1793.63,691.07Zm-128.43-70.9a84.3,84.3,0,0,0-25.06,25.53H1455.22A84.23,84.23,0,0,0,1430,620.17l79.55-139.61a82.25,82.25,0,0,0,76.06,0Zm-280.12,155.4A82,82,0,0,0,1423,766.3l94,165H1252.89l94.4-164.9A82,82,0,0,0,1385.08,775.57Zm27.19-84.38c0,15.59-12.2,28.28-27.19,28.28s-27.18-12.69-27.18-28.28,12.19-28.29,27.18-28.29S1412.27,675.59,1412.27,691.19Zm135.35-314c15,0,27.18,12.69,27.18,28.29s-12.19,28.28-27.18,28.28-27.19-12.69-27.19-28.28S1532.63,377.21,1547.62,377.21Zm-45.15,99.18L1422.91,616a82.26,82.26,0,0,0-75.74,0l-94.35-165.19h224.59A84.26,84.26,0,0,0,1502.47,476.39ZM1111.65,691.07l134.28-235.64L1340,620.22a85,85,0,0,0,.12,142L1246,926.76Zm412.23,235.58-93.75-164.51a84.14,84.14,0,0,0,25.23-25.69h176.91Zm186.47-207.3c-15,0-27.19-12.68-27.19-28.28s12.2-28.28,27.19-28.28,27.18,12.68,27.18,28.28S1725.34,719.35,1710.35,719.35Z" transform="translate(-994.79 -321.11)"/><path class="cls-1" d="M1400.42,781.23" transform="translate(-994.79 -321.11)"/><path class="cls-1" d="M1710.93,673.7" transform="translate(-994.79 -321.11)"/><text class="cls-2" transform="translate(0 995.64)"><tspan class="cls-3">2</tspan><tspan class="cls-4" x="126.41" y="0">0</tspan><tspan class="cls-5" x="276.94" y="0">2</tspan><tspan x="407.65" y="0">1 </tspan><tspan class="cls-6" x="547.41" y="0">#</tspan><tspan x="717.54" y="0">2</tspan></text></svg>