<?xml version="1.0" encoding="utf-8"?>
<!-- Generator: Adobe Illustrator 24.0.3, SVG Export Plug-In . SVG Version: 6.00 Build 0)  -->
<svg version="1.1" id="Layer_1" xmlns="http://www.w3.org/2000/svg" xmlns:xlink="http://www.w3.org/1999/xlink" x="0px" y="0px"
	 viewBox="0 0 2800.8 1705.1" style="enable-background:new 0 0 2800.8 1705.1;" xml:space="preserve">
<style type="text/css">
	.st0{fill:#1D59A8;}
	.st1{font-family:'NeueKabel-Medium';}
	.st2{font-size:273px;}
	.st3{letter-spacing:10;}
	.st4{letter-spacing:9;}
	.st5{letter-spacing:4;}
	.st6{letter-spacing:7;}
	.st7{letter-spacing:1;}
	.st8{font-family:'Athelas-Bold';}
	.st9{font-size:101.0075px;}
	.st10{letter-spacing:-1;}
	.st11{letter-spacing:2;}
	.st12{letter-spacing:-2;}
	.st13{font-family:'NeueKabel-Light';}
	.st14{font-size:202px;}
</style>
<g>
	<g>
		<text transform="matrix(1 0 0 1 1231.603 986.0889)"><tspan x="0" y="0" class="st0 st1 st2 st3">G</tspan><tspan x="206.9" y="0" class="st0 st1 st2 st4">E</tspan><tspan x="363.1" y="0" class="st0 st1 st2 st5">N</tspan><tspan x="574.9" y="0" class="st0 st1 st2 st4">E</tspan><tspan x="731.1" y="0" class="st0 st1 st2 st6">R</tspan><tspan x="892.7" y="0" class="st0 st1 st2 st7">A</tspan><tspan x="1080.8" y="0" class="st0 st1 st2">L</tspan></text>
	</g>
	<path class="st0" d="M1033.8,872.5c0-47.6-38.1-86.1-85-86.1c-14,0-27.2,3.4-38.8,9.5l-81.2-142.5c23.4-15.3,38.9-42,38.9-72.4
		c0-47.6-38.1-86.1-85-86.1c-30.1,0-56.6,15.9-71.7,39.8H423.6L231,872.5l192.5,337.8h386.1l143.5-251.8
		C998.1,956.2,1033.8,918.6,1033.8,872.5z M902.7,800.1c-10.3,6.7-19,15.6-25.6,26.1H688.4c-6.6-10.4-15.4-19.3-25.7-26.1
		l81.2-142.5c11.6,6.1,24.8,9.5,38.8,9.5c14,0,27.2-3.4,38.8-9.5L902.7,800.1z M616.8,958.7c13.9,0,27.1-3.4,38.7-9.5l96,168.4
		H481.8l96.4-168.3C589.8,955.3,602.9,958.7,616.8,958.7z M644.5,872.6c0,15.9-12.4,28.9-27.8,28.9c-15.3,0-27.8-13-27.8-28.9
		c0-15.9,12.4-28.9,27.8-28.9C632.1,843.7,644.5,856.7,644.5,872.6z M782.7,552.1c15.3,0,27.8,13,27.8,28.9s-12.4,28.9-27.8,28.9
		c-15.3,0-27.8-13-27.8-28.9S767.4,552.1,782.7,552.1z M736.6,653.3l-81.2,142.5c-11.6-6-24.7-9.4-38.6-9.4
		c-13.9,0-27.1,3.4-38.7,9.5l-96.3-168.6H711C717.6,637.7,726.3,646.6,736.6,653.3z M337.7,872.5l137.1-240.5l96.1,168.2
		c-23.5,15.3-39,42-39,72.4c0,30.5,15.6,57.2,39.2,72.5l-96.2,168L337.7,872.5z M758.5,1113L662.8,945c10.3-6.8,19.1-15.7,25.8-26.2
		h180.6L758.5,1113z M948.8,901.4c-15.3,0-27.8-13-27.8-28.9s12.4-28.9,27.8-28.9c15.3,0,27.8,13,27.8,28.9S964.1,901.4,948.8,901.4
		z"/>
	<g>
		<text transform="matrix(1 0 0 1 1241.0845 694.9985)"><tspan x="0" y="0" class="st0 st8 st9">De</tspan><tspan x="125.2" y="0" class="st0 st8 st9 st10">e</tspan><tspan x="173" y="0" class="st0 st8 st9">p Le</tspan><tspan x="358.3" y="0" class="st0 st8 st9 st11">a</tspan><tspan x="409.6" y="0" class="st0 st8 st9">r</tspan><tspan x="451.3" y="0" class="st0 st8 st9">n</tspan><tspan x="510.2" y="0" class="st0 st8 st9 st7">i</tspan><tspan x="541.7" y="0" class="st0 st8 st9 st12">n</tspan><tspan x="597.8" y="0" class="st0 st8 st9">g f</tspan><tspan x="704.5" y="0" class="st0 st8 st9 st10">o</tspan><tspan x="757.3" y="0" class="st0 st8 st9">r</tspan></text>
	</g>
	<text transform="matrix(1 0 0 1 1239.7896 1210.3071)" class="st0 st13 st14">2021 #2</text>
	<g>
		<g>
			<path class="st0" d="M1246,586.4c-1.1-0.9-1.7-1.9-1.7-2.9c0-0.7,0.3-1.4,0.8-1.9c3.6-3.5,6.2-7.1,7.7-10.7
				c1.5-3.6,2.3-7.8,2.3-12.3v-54.3c0-1.3-0.6-1.8-1-2c-0.6-0.4-2-0.9-5.2-1.3c-0.6-0.1-1.9-0.6-1.9-2.7c0-0.5,0.1-1.1,0.2-1.8
				l0.2-0.9c0,0,5.3,0.3,7.6,0.4c2.3,0.1,4.3,0.2,5.8,0.2c1.6,0,3.6-0.1,5.8-0.2c2.3-0.1,4.4-0.2,6.3-0.4l0.9-0.1l0.2,0.9
				c0.2,0.8,0.2,1.4,0.2,1.8c0,2.3-1.4,2.7-2,2.7c-2.9,0.4-4.1,1-4.7,1.3c-0.4,0.3-0.9,0.7-0.9,2.1v44.1c0,4.8-0.2,8.9-0.6,12.3
				c-0.4,3.5-1.3,6.7-2.7,9.5c-1.4,2.8-3.4,5.6-6,8.1c-2.6,2.5-6,5.2-10.1,8.1l-0.6,0.4L1246,586.4z"/>
		</g>
		<g>
			<path class="st0" d="M1296.2,563.9c-0.2-0.8-0.2-1.4-0.2-1.8c0-2,1.4-2.5,1.9-2.6c2.4-0.6,4.1-1.1,5.1-1.6
				c0.7-0.4,1.1-0.9,1.1-1.7v-51.8c0-1.3-0.6-1.7-1-2c-0.6-0.3-2.1-0.9-5.2-1.4c-0.7-0.1-1.3-0.5-1.6-1.2c-0.2-0.5-0.4-1-0.4-1.6
				c0-0.5,0.1-1.1,0.2-1.8l0.2-0.9l0.9,0.1c1.4,0.1,2.6,0.2,3.7,0.3c1.1,0,2.1,0.1,3,0.1c0.9,0.1,1.8,0.1,2.7,0.1h23.8
				c5.8,0,11,0.9,15.4,2.7c4.4,1.8,8.1,4.3,11.1,7.4c2.9,3.1,5.2,6.7,6.6,10.8c1.5,4.1,2.2,8.5,2.2,13.2c0,4.1-0.7,8.2-2.1,12.2
				c-1.4,4-3.6,7.7-6.5,11c-2.9,3.3-6.6,5.9-11,7.9c-4.4,2-9.6,3-15.5,3h-20.9c-1.8,0-3.7,0.1-6,0.1c-2.2,0.1-7.4,0.4-7.4,0.4
				L1296.2,563.9z M1315.7,555.4c0,0.5,0.1,0.8,0.3,1.1c0.2,0.3,0.6,0.6,1.2,0.8c0.7,0.2,1.8,0.4,3.1,0.6c1.4,0.1,3.2,0.2,5.3,0.2
				c5.1,0,9.4-0.6,12.9-1.8c3.4-1.2,6.2-2.9,8.4-5.1c2.1-2.2,3.7-4.9,4.7-8.1c1-3.2,1.5-6.9,1.5-10.9c0-10.1-2.5-17.7-7.5-22.5
				c-5-4.8-12.4-7.3-22-7.3h-7.8V555.4z"/>
		</g>
		<g>
			<path class="st0" d="M1381.4,563.9c-0.2-0.8-0.2-1.4-0.2-1.8c0-2,1.3-2.5,1.8-2.6c3.3-0.6,4.8-1.1,5.4-1.5c0.7-0.4,1-1,1-1.8
				v-51.9c0-1.3-0.5-1.8-0.9-2c-0.6-0.3-1.9-0.9-5.1-1.3c-0.7-0.1-1.2-0.5-1.5-1.1c-0.3-0.5-0.4-1-0.4-1.6c0-0.5,0.1-1.2,0.2-1.9
				l0.2-0.9c0,0,5.4,0.3,7.7,0.4c2.2,0.1,4.1,0.2,5.7,0.2c2.3,0,4.7-0.1,7.3-0.2c2.6-0.1,4.9-0.2,6.9-0.4l0.9-0.1l0.2,0.9
				c0.2,0.8,0.2,1.4,0.2,1.8c0,2.4-1.4,2.8-2,2.8c-2.8,0.3-4.9,0.8-6.1,1.4c-1,0.5-1.5,1.3-1.5,2.6v50.9c0,0.8,0.3,1.2,0.9,1.5
				c0.9,0.4,2.1,0.6,3.7,0.6h11.1c1.8,0,3.4-0.2,4.8-0.7c1.3-0.5,2.4-1.1,3.3-2c0.9-0.9,1.8-2,2.5-3.3c0.8-1.3,1.4-2.9,2-4.6
				c0.4-1,1.1-1.5,2.2-1.5c0.5,0,1,0.1,1.5,0.3l1.9,0.9l-0.2,0.8c-0.5,2-0.9,4.2-1.4,6.4c-0.4,2.3-0.8,4.8-1.2,7.6
				c-0.1,1.1-0.5,1.8-1.1,2.2c-0.5,0.3-1.1,0.4-1.7,0.4c-1.2,0-2.7-0.1-4.4-0.3c-1.7-0.2-3.2-0.3-4.4-0.3h-25.5
				c-1.5,0-3.5,0.1-5.9,0.1c-2.4,0.1-7.7,0.4-7.7,0.4L1381.4,563.9z"/>
		</g>
		<g>
			<path class="st0" d="M1446.2,564c-0.2-0.6-0.2-1.3-0.2-1.9c0-0.6,0.1-1.2,0.4-1.7c0.2-0.4,0.7-1,1.8-1.2c2-0.3,3.5-0.7,4.4-1.2
				c0.8-0.4,1.4-1,1.8-1.9l24.5-59c0.8-1.9,2-2.3,2.9-2.3c0.3,0,0.8,0.1,1.5,0.2l0.5,0.1l24.8,61.3c0.3,0.7,1,1.2,2.2,1.7
				c1.4,0.5,2.7,0.9,4,1.1c0.7,0.2,1.2,0.5,1.5,0.8c0.4,0.5,0.7,1.1,0.7,2c0,0.4-0.1,1.1-0.2,1.8l-0.2,0.9c0,0-5.2-0.3-7.3-0.4
				c-2.1-0.1-4-0.1-5.9-0.1c-1.9,0-4,0.1-6.5,0.1c-2.4,0.1-4.6,0.2-6.6,0.4l-0.9,0.1l-0.2-0.9c-0.2-0.8-0.2-1.4-0.2-1.8
				c0-0.9,0.2-1.5,0.6-2l0.3-0.3l1.1-0.4c1.5-0.3,2.9-0.7,3.9-1.1c1-0.4,1-0.9,1-1.1c0-0.1,0-0.5-0.3-1.1l-6.2-16.2h-21.3l-6.3,15.8
				c-0.4,0.9-0.4,1.4-0.4,1.7c0,0.1,0.2,1.3,5.3,2.1c1,0.1,1.5,0.7,1.7,1.1c0.3,0.5,0.4,1,0.4,1.6c0,0.4-0.1,1.1-0.2,1.8l-0.2,0.9
				c0,0-4.6-0.3-6.7-0.4c-2-0.1-4-0.1-6-0.1c-1.3,0-2.7,0-4.1,0.1c-1.4,0.1-2.9,0.2-4.4,0.4l-0.9,0.1L1446.2,564z M1487.1,533.8
				l-8-21.2l-8.4,21.2H1487.1z"/>
		</g>
	</g>
	<rect x="231" y="1346.3" class="st0" width="2338.7" height="6.3"/>
	<rect x="328.4" y="1312.4" class="st0" width="2144" height="6.3"/>
	<rect x="231" y="352.6" class="st0" width="2338.7" height="6.3"/>
	<rect x="328.4" y="386.5" class="st0" width="2144" height="6.3"/>
	<rect x="1135.9" y="494.8" class="st0" width="6.3" height="715.5"/>
</g>
</svg>
